<?xml version="1.0" encoding="utf-8"?><svg xmlns="http://www.w3.org/2000/svg" xmlns:xlink="http://www.w3.org/1999/xlink" width="1366" height="619" preserveAspectRatio="xMidYMid" viewBox="0 0 1366 619" style="z-index:1;margin-right:-2px;display:block;background-color:rgb(255, 255, 255);animation-play-state:paused" ><g transform="translate(683,309.5) scale(1,1) translate(-683,-309.5)" style="transform:matrix(1, 0, 0, 1, 0, 0);animation-play-state:paused" ><defs style="animation-play-state:paused" ><linearGradient id="lg-0.1439006665990612" x1="0" x2="0" y1="0" y2="1" style="animation-play-state:paused" ><stop stop-color="#ff00ff" offset="0.3" style="animation-play-state:paused" ></stop>

  
<stop stop-color="#00ffff" offset="0.6499999999999999" style="animation-play-state:paused" ></stop>

  
<stop stop-color="#00ffff" offset="1" style="animation-play-state:paused" ></stop></linearGradient>


<linearGradient id="fg-lg-0.1439006665990612" x1="0" x2="0" y1="0" y2="1" style="animation-play-state:paused" ><stop stop-color="#ff00ff" stop-opacity="1" offset="0.3" style="animation-play-state:paused" ></stop>

  
<stop stop-color="#00ffff" stop-opacity="0.66" offset="0.6499999999999999" style="animation-play-state:paused" ></stop>

  
<stop stop-color="#00ffff" stop-opacity="0" offset="1" style="animation-play-state:paused" ></stop></linearGradient>


<style type="text/css" style="animation-play-state:paused" >path { fill: none; stroke: #ff00ff; stroke-width: 2px }</style></defs>


<rect x="0" y="0" width="1366" height="619" fill="url(#lg-0.1439006665990612)" style="animation-play-state:paused" ></rect>
<path d="M0 185.7 L-9562 619" style="animation-play-state:paused" ></path>
<path d="M10.507692307692308 185.7 L-9404.384615384615 619" style="animation-play-state:paused" ></path>
<path d="M21.015384615384615 185.7 L-9246.76923076923 619" style="animation-play-state:paused" ></path>
<path d="M31.523076923076925 185.7 L-9089.153846153846 619" style="animation-play-state:paused" ></path>
<path d="M42.03076923076923 185.7 L-8931.538461538461 619" style="animation-play-state:paused" ></path>
<path d="M52.53846153846154 185.7 L-8773.923076923076 619" style="animation-play-state:paused" ></path>
<path d="M63.04615384615385 185.7 L-8616.307692307691 619" style="animation-play-state:paused" ></path>
<path d="M73.55384615384615 185.7 L-8458.692307692309 619" style="animation-play-state:paused" ></path>
<path d="M84.06153846153846 185.7 L-8301.076923076924 619" style="animation-play-state:paused" ></path>
<path d="M94.56923076923077 185.7 L-8143.461538461539 619" style="animation-play-state:paused" ></path>
<path d="M105.07692307692308 185.7 L-7985.846153846154 619" style="animation-play-state:paused" ></path>
<path d="M115.58461538461539 185.7 L-7828.2307692307695 619" style="animation-play-state:paused" ></path>
<path d="M126.0923076923077 185.7 L-7670.615384615385 619" style="animation-play-state:paused" ></path>
<path d="M136.6 185.7 L-7513 619" style="animation-play-state:paused" ></path>
<path d="M147.1076923076923 185.7 L-7355.384615384615 619" style="animation-play-state:paused" ></path>
<path d="M157.6153846153846 185.7 L-7197.7692307692305 619" style="animation-play-state:paused" ></path>
<path d="M168.12307692307692 185.7 L-7040.153846153846 619" style="animation-play-state:paused" ></path>
<path d="M178.63076923076923 185.7 L-6882.538461538461 619" style="animation-play-state:paused" ></path>
<path d="M189.13846153846154 185.7 L-6724.923076923077 619" style="animation-play-state:paused" ></path>
<path d="M199.64615384615385 185.7 L-6567.307692307692 619" style="animation-play-state:paused" ></path>
<path d="M210.15384615384616 185.7 L-6409.692307692308 619" style="animation-play-state:paused" ></path>
<path d="M220.66153846153847 185.7 L-6252.076923076923 619" style="animation-play-state:paused" ></path>
<path d="M231.16923076923078 185.7 L-6094.461538461539 619" style="animation-play-state:paused" ></path>
<path d="M241.6769230769231 185.7 L-5936.846153846154 619" style="animation-play-state:paused" ></path>
<path d="M252.1846153846154 185.7 L-5779.2307692307695 619" style="animation-play-state:paused" ></path>
<path d="M262.6923076923077 185.7 L-5621.615384615385 619" style="animation-play-state:paused" ></path>
<path d="M273.2 185.7 L-5464 619" style="animation-play-state:paused" ></path>
<path d="M283.7076923076923 185.7 L-5306.384615384615 619" style="animation-play-state:paused" ></path>
<path d="M294.2153846153846 185.7 L-5148.7692307692305 619" style="animation-play-state:paused" ></path>
<path d="M304.7230769230769 185.7 L-4991.153846153846 619" style="animation-play-state:paused" ></path>
<path d="M315.2307692307692 185.7 L-4833.538461538462 619" style="animation-play-state:paused" ></path>
<path d="M325.73846153846154 185.7 L-4675.923076923077 619" style="animation-play-state:paused" ></path>
<path d="M336.24615384615385 185.7 L-4518.307692307692 619" style="animation-play-state:paused" ></path>
<path d="M346.75384615384615 185.7 L-4360.692307692308 619" style="animation-play-state:paused" ></path>
<path d="M357.26153846153846 185.7 L-4203.076923076923 619" style="animation-play-state:paused" ></path>
<path d="M367.7692307692308 185.7 L-4045.461538461538 619" style="animation-play-state:paused" ></path>
<path d="M378.2769230769231 185.7 L-3887.8461538461543 619" style="animation-play-state:paused" ></path>
<path d="M388.7846153846154 185.7 L-3730.2307692307695 619" style="animation-play-state:paused" ></path>
<path d="M399.2923076923077 185.7 L-3572.6153846153848 619" style="animation-play-state:paused" ></path>
<path d="M409.8 185.7 L-3415 619" style="animation-play-state:paused" ></path>
<path d="M420.3076923076923 185.7 L-3257.3846153846152 619" style="animation-play-state:paused" ></path>
<path d="M430.81538461538463 185.7 L-3099.7692307692305 619" style="animation-play-state:paused" ></path>
<path d="M441.32307692307694 185.7 L-2942.1538461538457 619" style="animation-play-state:paused" ></path>
<path d="M451.83076923076925 185.7 L-2784.538461538462 619" style="animation-play-state:paused" ></path>
<path d="M462.33846153846156 185.7 L-2626.923076923077 619" style="animation-play-state:paused" ></path>
<path d="M472.84615384615387 185.7 L-2469.3076923076924 619" style="animation-play-state:paused" ></path>
<path d="M483.3538461538462 185.7 L-2311.6923076923076 619" style="animation-play-state:paused" ></path>
<path d="M493.8615384615385 185.7 L-2154.076923076923 619" style="animation-play-state:paused" ></path>
<path d="M504.3692307692308 185.7 L-1996.461538461538 619" style="animation-play-state:paused" ></path>
<path d="M514.876923076923 185.7 L-1838.8461538461543 619" style="animation-play-state:paused" ></path>
<path d="M525.3846153846154 185.7 L-1681.2307692307695 619" style="animation-play-state:paused" ></path>
<path d="M535.8923076923077 185.7 L-1523.6153846153848 619" style="animation-play-state:paused" ></path>
<path d="M546.4 185.7 L-1366 619" style="animation-play-state:paused" ></path>
<path d="M556.9076923076923 185.7 L-1208.3846153846152 619" style="animation-play-state:paused" ></path>
<path d="M567.4153846153846 185.7 L-1050.7692307692305 619" style="animation-play-state:paused" ></path>
<path d="M577.9230769230769 185.7 L-893.1538461538457 619" style="animation-play-state:paused" ></path>
<path d="M588.4307692307692 185.7 L-735.538461538461 619" style="animation-play-state:paused" ></path>
<path d="M598.9384615384615 185.7 L-577.9230769230762 619" style="animation-play-state:paused" ></path>
<path d="M609.4461538461538 185.7 L-420.30769230769147 619" style="animation-play-state:paused" ></path>
<path d="M619.9538461538461 185.7 L-262.69230769230853 619" style="animation-play-state:paused" ></path>
<path d="M630.4615384615385 185.7 L-105.07692307692378 619" style="animation-play-state:paused" ></path>
<path d="M640.9692307692308 185.7 L52.53846153846098 619" style="animation-play-state:paused" ></path>
<path d="M651.4769230769231 185.7 L210.15384615384573 619" style="animation-play-state:paused" ></path>
<path d="M661.9846153846154 185.7 L367.7692307692305 619" style="animation-play-state:paused" ></path>
<path d="M672.4923076923077 185.7 L525.3846153846152 619" style="animation-play-state:paused" ></path>
<path d="M683 185.7 L683 619" style="animation-play-state:paused" ></path>
<path d="M693.5076923076923 185.7 L840.6153846153848 619" style="animation-play-state:paused" ></path>
<path d="M704.0153846153846 185.7 L998.2307692307695 619" style="animation-play-state:paused" ></path>
<path d="M714.5230769230769 185.7 L1155.8461538461543 619" style="animation-play-state:paused" ></path>
<path d="M725.0307692307692 185.7 L1313.461538461539 619" style="animation-play-state:paused" ></path>
<path d="M735.5384615384615 185.7 L1471.0769230769238 619" style="animation-play-state:paused" ></path>
<path d="M746.0461538461539 185.7 L1628.6923076923085 619" style="animation-play-state:paused" ></path>
<path d="M756.5538461538462 185.7 L1786.3076923076915 619" style="animation-play-state:paused" ></path>
<path d="M767.0615384615385 185.7 L1943.9230769230762 619" style="animation-play-state:paused" ></path>
<path d="M777.5692307692308 185.7 L2101.538461538461 619" style="animation-play-state:paused" ></path>
<path d="M788.0769230769231 185.7 L2259.1538461538457 619" style="animation-play-state:paused" ></path>
<path d="M798.5846153846154 185.7 L2416.7692307692305 619" style="animation-play-state:paused" ></path>
<path d="M809.0923076923077 185.7 L2574.3846153846152 619" style="animation-play-state:paused" ></path>
<path d="M819.6 185.7 L2732 619" style="animation-play-state:paused" ></path>
<path d="M830.1076923076923 185.7 L2889.6153846153848 619" style="animation-play-state:paused" ></path>
<path d="M840.6153846153846 185.7 L3047.2307692307695 619" style="animation-play-state:paused" ></path>
<path d="M851.123076923077 185.7 L3204.8461538461543 619" style="animation-play-state:paused" ></path>
<path d="M861.6307692307693 185.7 L3362.461538461539 619" style="animation-play-state:paused" ></path>
<path d="M872.1384615384616 185.7 L3520.076923076924 619" style="animation-play-state:paused" ></path>
<path d="M882.6461538461539 185.7 L3677.6923076923085 619" style="animation-play-state:paused" ></path>
<path d="M893.1538461538462 185.7 L3835.3076923076915 619" style="animation-play-state:paused" ></path>
<path d="M903.6615384615385 185.7 L3992.923076923076 619" style="animation-play-state:paused" ></path>
<path d="M914.1692307692308 185.7 L4150.538461538461 619" style="animation-play-state:paused" ></path>
<path d="M924.6769230769231 185.7 L4308.153846153846 619" style="animation-play-state:paused" ></path>
<path d="M935.1846153846154 185.7 L4465.7692307692305 619" style="animation-play-state:paused" ></path>
<path d="M945.6923076923077 185.7 L4623.384615384615 619" style="animation-play-state:paused" ></path>
<path d="M956.2 185.7 L4781 619" style="animation-play-state:paused" ></path>
<path d="M966.7076923076924 185.7 L4938.615384615385 619" style="animation-play-state:paused" ></path>
<path d="M977.2153846153847 185.7 L5096.2307692307695 619" style="animation-play-state:paused" ></path>
<path d="M987.723076923077 185.7 L5253.846153846154 619" style="animation-play-state:paused" ></path>
<path d="M998.2307692307693 185.7 L5411.461538461539 619" style="animation-play-state:paused" ></path>
<path d="M1008.7384615384616 185.7 L5569.076923076924 619" style="animation-play-state:paused" ></path>
<path d="M1019.2461538461539 185.7 L5726.6923076923085 619" style="animation-play-state:paused" ></path>
<path d="M1029.753846153846 185.7 L5884.3076923076915 619" style="animation-play-state:paused" ></path>
<path d="M1040.2615384615385 185.7 L6041.923076923076 619" style="animation-play-state:paused" ></path>
<path d="M1050.7692307692307 185.7 L6199.538461538461 619" style="animation-play-state:paused" ></path>
<path d="M1061.2769230769231 185.7 L6357.153846153846 619" style="animation-play-state:paused" ></path>
<path d="M1071.7846153846153 185.7 L6514.7692307692305 619" style="animation-play-state:paused" ></path>
<path d="M1082.2923076923078 185.7 L6672.384615384615 619" style="animation-play-state:paused" ></path>
<path d="M1092.8 185.7 L6830 619" style="animation-play-state:paused" ></path>
<path d="M1103.3076923076924 185.7 L6987.615384615383 619" style="animation-play-state:paused" ></path>
<path d="M1113.8153846153846 185.7 L7145.2307692307695 619" style="animation-play-state:paused" ></path>
<path d="M1124.323076923077 185.7 L7302.846153846152 619" style="animation-play-state:paused" ></path>
<path d="M1134.8307692307692 185.7 L7460.461538461539 619" style="animation-play-state:paused" ></path>
<path d="M1145.3384615384616 185.7 L7618.076923076922 619" style="animation-play-state:paused" ></path>
<path d="M1155.8461538461538 185.7 L7775.6923076923085 619" style="animation-play-state:paused" ></path>
<path d="M1166.3538461538462 185.7 L7933.3076923076915 619" style="animation-play-state:paused" ></path>
<path d="M1176.8615384615384 185.7 L8090.923076923078 619" style="animation-play-state:paused" ></path>
<path d="M1187.3692307692309 185.7 L8248.538461538461 619" style="animation-play-state:paused" ></path>
<path d="M1197.876923076923 185.7 L8406.153846153848 619" style="animation-play-state:paused" ></path>
<path d="M1208.3846153846155 185.7 L8563.76923076923 619" style="animation-play-state:paused" ></path>
<path d="M1218.8923076923077 185.7 L8721.384615384617 619" style="animation-play-state:paused" ></path>
<path d="M1229.4 185.7 L8879 619" style="animation-play-state:paused" ></path>
<path d="M1239.9076923076923 185.7 L9036.615384615383 619" style="animation-play-state:paused" ></path>
<path d="M1250.4153846153847 185.7 L9194.23076923077 619" style="animation-play-state:paused" ></path>
<path d="M1260.923076923077 185.7 L9351.846153846152 619" style="animation-play-state:paused" ></path>
<path d="M1271.4307692307693 185.7 L9509.461538461539 619" style="animation-play-state:paused" ></path>
<path d="M1281.9384615384615 185.7 L9667.076923076922 619" style="animation-play-state:paused" ></path>
<path d="M1292.446153846154 185.7 L9824.692307692309 619" style="animation-play-state:paused" ></path>
<path d="M1302.9538461538461 185.7 L9982.307692307691 619" style="animation-play-state:paused" ></path>
<path d="M1313.4615384615386 185.7 L10139.923076923078 619" style="animation-play-state:paused" ></path>
<path d="M1323.9692307692308 185.7 L10297.538461538461 619" style="animation-play-state:paused" ></path>
<path d="M1334.4769230769232 185.7 L10455.153846153848 619" style="animation-play-state:paused" ></path>
<path d="M1344.9846153846154 185.7 L10612.76923076923 619" style="animation-play-state:paused" ></path>
<path d="M1355.4923076923078 185.7 L10770.384615384617 619" style="animation-play-state:paused" ></path>
<path d="M1366 185.7 L10928 619" style="animation-play-state:paused" ></path>
<g transform="matrix(1,0,0,1,0,0)" style="transform:matrix(1, 0, 0, 1, 0, 0);animation-play-state:paused" ><path d="M0 185.7 L1366 185.7" style="animation-play-state:paused" ></path></g>
<g transform="matrix(1,0,0,1,0,0)" style="transform:matrix(1, 0, 0, 1, 0, 0);animation-play-state:paused" ><path d="M0 188.98179881656804 L1366 188.98179881656804" style="animation-play-state:paused" ></path></g>
<g transform="matrix(1,0,0,1,0,0)" style="transform:matrix(1, 0, 0, 1, 0, 0);animation-play-state:paused" ><path d="M0 195.54539644970413 L1366 195.54539644970413" style="animation-play-state:paused" ></path></g>
<g transform="matrix(1,0,0,1,0,0)" style="transform:matrix(1, 0, 0, 1, 0, 0);animation-play-state:paused" ><path d="M0 205.39079289940827 L1366 205.39079289940827" style="animation-play-state:paused" ></path></g>
<g transform="matrix(1,0,0,1,0,0)" style="transform:matrix(1, 0, 0, 1, 0, 0);animation-play-state:paused" ><path d="M0 218.51798816568046 L1366 218.51798816568046" style="animation-play-state:paused" ></path></g>
<g transform="matrix(1,0,0,1,0,0)" style="transform:matrix(1, 0, 0, 1, 0, 0);animation-play-state:paused" ><path d="M0 234.9269822485207 L1366 234.9269822485207" style="animation-play-state:paused" ></path></g>
<g transform="matrix(1,0,0,1,0,0)" style="transform:matrix(1, 0, 0, 1, 0, 0);animation-play-state:paused" ><path d="M0 254.61777514792897 L1366 254.61777514792897" style="animation-play-state:paused" ></path></g>
<g transform="matrix(1,0,0,1,0,0)" style="transform:matrix(1, 0, 0, 1, 0, 0);animation-play-state:paused" ><path d="M0 277.5903668639053 L1366 277.5903668639053" style="animation-play-state:paused" ></path></g>
<g transform="matrix(1,0,0,1,0,0)" style="transform:matrix(1, 0, 0, 1, 0, 0);animation-play-state:paused" ><path d="M0 303.84475739644967 L1366 303.84475739644967" style="animation-play-state:paused" ></path></g>
<g transform="matrix(1,0,0,1,0,0)" style="transform:matrix(1, 0, 0, 1, 0, 0);animation-play-state:paused" ><path d="M0 333.3809467455621 L1366 333.3809467455621" style="animation-play-state:paused" ></path></g>
<g transform="matrix(1,0,0,1,0,0)" style="transform:matrix(1, 0, 0, 1, 0, 0);animation-play-state:paused" ><path d="M0 366.1989349112426 L1366 366.1989349112426" style="animation-play-state:paused" ></path></g>
<g transform="matrix(1,0,0,1,0,0)" style="transform:matrix(1, 0, 0, 1, 0, 0);animation-play-state:paused" ><path d="M0 402.2987218934911 L1366 402.2987218934911" style="animation-play-state:paused" ></path></g>
<g transform="matrix(1,0,0,1,0,0)" style="transform:matrix(1, 0, 0, 1, 0, 0);animation-play-state:paused" ><path d="M0 441.6803076923077 L1366 441.6803076923077" style="animation-play-state:paused" ></path></g>
<g transform="matrix(1,0,0,1,0,0)" style="transform:matrix(1, 0, 0, 1, 0, 0);animation-play-state:paused" ><path d="M0 484.3436923076923 L1366 484.3436923076923" style="animation-play-state:paused" ></path></g>
<g transform="matrix(1,0,0,1,0,0)" style="transform:matrix(1, 0, 0, 1, 0, 0);animation-play-state:paused" ><path d="M0 530.288875739645 L1366 530.288875739645" style="animation-play-state:paused" ></path></g>
<g transform="matrix(1,0,0,1,0,0)" style="transform:matrix(1, 0, 0, 1, 0, 0);animation-play-state:paused" ><path d="M0 579.5158579881657 L1366 579.5158579881657" style="animation-play-state:paused" ></path></g>
<g transform="matrix(1,0,0,1,0,0)" style="transform:matrix(1, 0, 0, 1, 0, 0);animation-play-state:paused" ><path d="M0 632.0246390532545 L1366 632.0246390532545" style="animation-play-state:paused" ></path></g>
<rect x="0" y="0" width="1366" height="619" fill="url(#fg-lg-0.1439006665990612)" style="animation-play-state:paused" ></rect></g></svg>