<svg id="visual" viewBox="0 0 900 600" width="900" height="600" xmlns="http://www.w3.org/2000/svg" xmlns:xlink="http://www.w3.org/1999/xlink" version="1.1"><rect width="900" height="600" fill="#931F1F"></rect><g><g transform="translate(17 202)"><path d="M84.8 -29.1C96.1 7.2 81.9 50.2 50.1 74.5C18.4 98.9 -30.9 104.6 -63.8 82C-96.8 59.5 -113.4 8.6 -100 -30.6C-86.7 -69.7 -43.3 -97.2 -3.3 -96.1C36.8 -95 73.5 -65.4 84.8 -29.1Z" stroke="#F7760E" fill="none" stroke-width="20"></path></g><g transform="translate(370 483)"><path d="M62.3 -21C70.5 5.1 60 36.6 39.2 51C18.4 65.5 -12.7 62.8 -36 46.6C-59.2 30.4 -74.7 0.5 -67.4 -24.3C-60.1 -49.1 -30.1 -68.9 -1.5 -68.4C27 -67.9 54 -47.1 62.3 -21Z" stroke="#F7760E" fill="none" stroke-width="20"></path></g><g transform="translate(341 84)"><path d="M55.4 -18.2C62.8 4.5 53.3 32.5 34.6 45.7C15.8 58.9 -12.4 57.3 -30.6 43.7C-48.8 30.1 -57 4.4 -50.3 -17.5C-43.5 -39.4 -21.8 -57.6 1.1 -58C24.1 -58.4 48.1 -40.9 55.4 -18.2Z" stroke="#F7760E" fill="none" stroke-width="20"></path></g></g></svg>