<svg id="visual" viewBox="0 0 900 600" width="900" height="600" xmlns="http://www.w3.org/2000/svg" xmlns:xlink="http://www.w3.org/1999/xlink" version="1.1"><path d="M0 55L13.7 53C27.3 51 54.7 47 82 51C109.3 55 136.7 67 163.8 77C191 87 218 95 245.2 103C272.3 111 299.7 119 327 117C354.3 115 381.7 103 409 104C436.3 105 463.7 119 491 114C518.3 109 545.7 85 573 70C600.3 55 627.7 49 654.8 46C682 43 709 43 736.2 57C763.3 71 790.7 99 818 99C845.3 99 872.7 71 886.3 57L900 43L900 0L886.3 0C872.7 0 845.3 0 818 0C790.7 0 763.3 0 736.2 0C709 0 682 0 654.8 0C627.7 0 600.3 0 573 0C545.7 0 518.3 0 491 0C463.7 0 436.3 0 409 0C381.7 0 354.3 0 327 0C299.7 0 272.3 0 245.2 0C218 0 191 0 163.8 0C136.7 0 109.3 0 82 0C54.7 0 27.3 0 13.7 0L0 0Z" fill="#004cbb"></path><path d="M0 163L13.7 164C27.3 165 54.7 167 82 184C109.3 201 136.7 233 163.8 252C191 271 218 277 245.2 271C272.3 265 299.7 247 327 249C354.3 251 381.7 273 409 270C436.3 267 463.7 239 491 213C518.3 187 545.7 163 573 160C600.3 157 627.7 175 654.8 189C682 203 709 213 736.2 222C763.3 231 790.7 239 818 244C845.3 249 872.7 251 886.3 252L900 253L900 41L886.3 55C872.7 69 845.3 97 818 97C790.7 97 763.3 69 736.2 55C709 41 682 41 654.8 44C627.7 47 600.3 53 573 68C545.7 83 518.3 107 491 112C463.7 117 436.3 103 409 102C381.7 101 354.3 113 327 115C299.7 117 272.3 109 245.2 101C218 93 191 85 163.8 75C136.7 65 109.3 53 82 49C54.7 45 27.3 49 13.7 51L0 53Z" fill="#2573ff"></path><path d="M0 379L13.7 386C27.3 393 54.7 407 82 413C109.3 419 136.7 417 163.8 415C191 413 218 411 245.2 416C272.3 421 299.7 433 327 449C354.3 465 381.7 485 409 480C436.3 475 463.7 445 491 425C518.3 405 545.7 395 573 403C600.3 411 627.7 437 654.8 437C682 437 709 411 736.2 417C763.3 423 790.7 461 818 478C845.3 495 872.7 491 886.3 489L900 487L900 251L886.3 250C872.7 249 845.3 247 818 242C790.7 237 763.3 229 736.2 220C709 211 682 201 654.8 187C627.7 173 600.3 155 573 158C545.7 161 518.3 185 491 211C463.7 237 436.3 265 409 268C381.7 271 354.3 249 327 247C299.7 245 272.3 263 245.2 269C218 275 191 269 163.8 250C136.7 231 109.3 199 82 182C54.7 165 27.3 163 13.7 162L0 161Z" fill="#6198ff"></path><path d="M0 457L13.7 460C27.3 463 54.7 469 82 473C109.3 477 136.7 479 163.8 484C191 489 218 497 245.2 500C272.3 503 299.7 501 327 508C354.3 515 381.7 531 409 525C436.3 519 463.7 491 491 474C518.3 457 545.7 451 573 459C600.3 467 627.7 489 654.8 489C682 489 709 467 736.2 473C763.3 479 790.7 513 818 527C845.3 541 872.7 535 886.3 532L900 529L900 485L886.3 487C872.7 489 845.3 493 818 476C790.7 459 763.3 421 736.2 415C709 409 682 435 654.8 435C627.7 435 600.3 409 573 401C545.7 393 518.3 403 491 423C463.7 443 436.3 473 409 478C381.7 483 354.3 463 327 447C299.7 431 272.3 419 245.2 414C218 409 191 411 163.8 413C136.7 415 109.3 417 82 411C54.7 405 27.3 391 13.7 384L0 377Z" fill="#2573ff"></path><path d="M0 601L13.7 601C27.3 601 54.7 601 82 601C109.3 601 136.7 601 163.8 601C191 601 218 601 245.2 601C272.3 601 299.7 601 327 601C354.3 601 381.7 601 409 601C436.3 601 463.7 601 491 601C518.3 601 545.7 601 573 601C600.3 601 627.7 601 654.8 601C682 601 709 601 736.2 601C763.3 601 790.7 601 818 601C845.3 601 872.7 601 886.3 601L900 601L900 527L886.3 530C872.7 533 845.3 539 818 525C790.7 511 763.3 477 736.2 471C709 465 682 487 654.8 487C627.7 487 600.3 465 573 457C545.7 449 518.3 455 491 472C463.7 489 436.3 517 409 523C381.7 529 354.3 513 327 506C299.7 499 272.3 501 245.2 498C218 495 191 487 163.8 482C136.7 477 109.3 475 82 471C54.7 467 27.3 461 13.7 458L0 455Z" fill="#004cbb"></path></svg>